# xmcd
#
# Track frame offsets:
#	150
#	15162
#	27805
#	44510
#	62045
#	76077
#	91860
#	106967
#	118555
#	136857
#	154315
#	175382
#	189762
#	205242
#	221232
#	238575
#	255187
#	269152
#	284835
#	298232
#	313687
#	330802
#
# Disc length: 4641 seconds
#
# Revision: 0
# Processed by: cddbd v1.5PL3 Copyright (c) Steve Scherf et al.
# Submitted via: dBpowerAMP V4.0
#
DISCID=37121f16
DTITLE=Varous Artists - Today's Country Gold '93
DYEAR=1993
DGENRE=Country
TTITLE0=McBride and The  Ride/Sacred Ground
TTITLE1=Trisha Yearwood/Wrong Side Of Memphis
TTITLE2=Mark Collie/Even The Man In The Moon Is Crying
TTITLE3=Reba McEntire/Is There Life Out There
TTITLE4=Mark Chesnutt/Bubba Shot The Jukebox
TTITLE5=Tanya Tucker/Down To My Last Teardrop
TTITLE6=Ricky Van Shelton/Somebody Lied
TTITLE7=Chris LeDoux/Whatcha Gonna Do With A Cowboy
TTITLE8=Michelle Wright/Do Right By Me
TTITLE9=Mark Koenig/The Lonesome Kind
TTITLE10=Joel Feeney and Western Front/Diamonds
TTITLE11=Mike Reid/Walk On Faith
TTITLE12=Patricia Conroy/Bad Day For Trains
TTITLE13=Paul Overstreet/Ball and Chain
TTITLE14=Suzy Bogguss/Aces
TTITLE15=Billy Dean/Only The Wind
TTITLE16=George Fox/Fell In Love And I Can't Get Out
TTITLE17=Rankin Family/Orangedale Whistle
TTITLE18=Marty Stuart/Burn Me Down
TTITLE19=Jack Scott and Carroll Baker/Burning Bridges
TTITLE20=Johnny Lee/What A Wonderful World
TTITLE21=Gary Fjellgaard/The Last Hurrah
EXTD=
EXTT0=
EXTT1=
EXTT2=
EXTT3=
EXTT4=
EXTT5=
EXTT6=
EXTT7=
EXTT8=
EXTT9=
EXTT10=
EXTT11=
EXTT12=
EXTT13=
EXTT14=
EXTT15=
EXTT16=
EXTT17=
EXTT18=
EXTT19=
EXTT20=
EXTT21=
PLAYORDER=
